<svg width="677" height="400" viewBox="0 0 677 400" fill="none" xmlns="http://www.w3.org/2000/svg">
<path d="M337.014 227.403C353.92 207.226 374.642 181.322 399.182 149.693V134.151L359.918 184.049C334.288 216.769 310.838 245.126 289.571 269.121C277.573 283.845 259.577 304.567 235.583 331.288C210.498 360.736 182.14 375.46 150.511 375.46L140.695 374.642C119.973 372.461 104.158 365.917 93.2515 355.01C82.8903 344.104 75.801 331.561 71.9836 317.382C68.1663 303.749 66.2577 291.752 66.2577 281.391L67.0757 269.939C72.529 238.309 86.9802 215.678 110.429 202.045C133.879 188.412 158.964 178.323 185.685 171.779C212.406 164.69 233.402 155.692 248.671 144.785V297.751L287.935 252.761C301.023 236.401 307.566 218.95 307.566 200.409V147.239C307.566 131.425 304.84 112.065 299.387 89.1616C294.479 66.2577 281.936 46.0804 261.759 28.6299C242.127 11.1793 211.316 1.63599 169.325 0H166.053C138.241 2.45399 138.241 7.0893 115.337 16.3599C141.513 7.36196 143.967 9.81593 161.145 9.81593H168.507C191.956 11.9973 209.407 19.0866 220.859 31.0838C232.856 42.5358 240.491 56.169 243.763 71.9836C247.58 87.7982 249.489 101.977 249.489 114.519L248.671 126.789C245.944 137.151 233.674 145.331 211.861 151.329C190.593 157.328 173.415 161.963 160.327 165.235C130.334 172.87 98.9775 183.231 66.2577 196.319C34.0832 208.862 12.5426 233.674 1.63599 270.757C0.545329 276.21 0 281.663 0 287.117C0 311.111 9.81595 332.379 29.4479 350.92C49.0798 370.007 75.2556 382.004 107.975 386.912C116.701 388.003 125.153 388.548 133.333 388.548C155.147 388.548 173.688 385.003 188.957 377.914C204.772 370.825 218.405 361.827 229.857 350.92C234.765 347.103 241.036 340.559 248.671 331.288C250.307 354.192 255.487 369.461 264.213 377.096C273.483 384.731 283.572 388.548 294.479 388.548C308.112 388.548 318.746 385.276 326.38 378.732L338.65 368.916C325.017 368.916 315.474 360.464 310.02 343.558C308.384 333.197 307.294 320.927 306.749 306.748V286.299V263.395C317.11 251.943 327.198 239.945 337.014 227.403Z" fill="#2F4858"/>
<path d="M339.168 172.145C322.262 192.322 301.54 218.226 277 249.855V265.397L316.264 215.499C341.894 182.779 365.344 154.422 386.611 130.427C398.609 115.703 416.605 94.9809 440.599 68.2597C465.684 38.8119 494.042 24.088 525.671 24.088L535.487 24.9059C556.209 27.0872 572.024 33.6312 582.93 44.5378C593.292 55.4445 600.381 67.9871 604.198 82.1656C608.016 95.7989 609.924 107.796 609.924 118.157L609.106 129.609C603.653 161.239 589.202 183.87 565.753 197.503C542.303 211.136 517.218 221.225 490.497 227.769C463.776 234.858 442.78 243.856 427.511 254.763V101.798L388.247 146.787C375.159 163.147 368.616 180.598 368.616 199.139V252.309C368.616 268.123 371.342 287.483 376.795 310.387C381.703 333.29 394.246 353.468 414.423 370.918C434.055 388.369 464.866 397.912 506.857 399.548H510.129C537.941 397.094 537.941 392.459 560.845 383.188C534.669 392.186 532.215 389.732 515.037 389.732H507.675C484.226 387.551 466.775 380.461 455.323 368.464C443.326 357.012 435.691 343.379 432.419 327.564C428.602 311.75 426.693 297.571 426.693 285.029L427.511 272.759C430.238 262.397 442.508 254.217 464.321 248.219C485.589 242.22 502.767 237.585 515.855 234.313C545.848 226.678 577.204 216.317 609.924 203.229C642.099 190.686 663.639 165.874 674.546 128.791C675.637 123.338 676.182 117.885 676.182 112.431C676.182 88.437 666.366 67.1691 646.734 48.6278C627.102 29.5413 600.926 17.544 568.207 12.636C559.481 11.5453 551.029 11 542.849 11C521.035 11 502.494 14.5446 487.225 21.6339C471.41 28.7233 457.777 37.7212 446.325 48.6278C441.417 52.4451 435.146 58.9891 427.511 68.2597C425.875 45.3558 420.695 30.0866 411.969 22.452C402.699 14.8173 392.61 11 381.703 11C368.07 11 357.436 14.272 349.802 20.8159L337.532 30.6319C351.165 30.6319 360.708 39.0845 366.162 55.9898C367.798 66.3511 368.888 78.621 369.434 92.7996V113.25V136.153C359.072 147.605 348.984 159.603 339.168 172.145Z" fill="#2F4858"/>
<path d="M153.783 60.5317C153.783 79.5059 138.402 94.8875 119.427 94.8875C100.453 94.8875 85.0716 79.5059 85.0716 60.5317C85.0716 41.5575 100.453 26.1759 119.427 26.1759C138.402 26.1759 153.783 41.5575 153.783 60.5317Z" fill="#2F4858"/>
<path d="M590.593 339.468C590.593 358.443 575.211 373.824 556.237 373.824C537.263 373.824 521.881 358.443 521.881 339.468C521.881 320.494 537.263 305.112 556.237 305.112C575.211 305.112 590.593 320.494 590.593 339.468Z" fill="#DC6A6A"/>
</svg>
